<?xml version="1.0" encoding="utf-8"?>
<!-- Generator: Adobe Illustrator 26.0.2, SVG Export Plug-In . SVG Version: 6.00 Build 0)  -->
<svg version="1.1" id="Layer_1" xmlns="http://www.w3.org/2000/svg" xmlns:xlink="http://www.w3.org/1999/xlink" x="0px" y="0px"
	 viewBox="0 0 234 234" style="enable-background:new 0 0 234 234;" xml:space="preserve">
<style type="text/css">
	.st0{fill:none;}
</style>
<g>
	<polygon class="st0" points="63.08,171.23 117.15,171.23 117.15,117.36 63.08,171.15 	"/>
	<polygon class="st0" points="63.08,297.42 63.08,171.23 63,171.23 9.02,224.95 9.02,297.42 	"/>
	<polygon class="st0" points="228.56,63.07 228.56,9.01 226.05,9.01 171.71,63.07 	"/>
	<polygon class="st0" points="63.08,117.17 117.15,117.17 117.15,117.36 171.71,63.07 63.08,63.07 	"/>
	<polygon points="9.02,171.23 9.02,224.95 63,171.23 	"/>
	<rect x="9.02" y="63.07" width="54.07" height="54.1"/>
	<polygon points="63.08,63.07 170.89,63.07 225.02,9.01 9.02,9.01 9.02,9.07 63.08,9.07 	"/>
	<rect x="9.02" y="9.07" width="54.07" height="54"/>
	<polygon points="63.08,117.17 63.08,171.15 116.79,117.17 	"/>
	<polygon points="63.08,171.15 63.08,117.17 9.02,117.17 9.02,171.23 63,171.23 	"/>
</g>
</svg>
