<?xml version="1.0" encoding="utf-8"?>
<!-- Generator: Adobe Illustrator 26.0.3, SVG Export Plug-In . SVG Version: 6.00 Build 0)  -->
<svg version="1.1" id="Layer_1" xmlns="http://www.w3.org/2000/svg" xmlns:xlink="http://www.w3.org/1999/xlink" x="0px" y="0px"
	 viewBox="0 0 132 132" style="enable-background:new 0 0 132 132;" xml:space="preserve">
<style type="text/css">
	.st0{fill:#008F8A;}
</style>
<path class="st0" d="M56.63,93.9c-3.25-0.36-6.45-1.1-9.53-2.2c0.09-2.21,0.15-4.52,0.15-6.92v-0.75v-2.41
	c2.91,1.39,6.07,2.35,9.38,2.83V61.34c0-3.73,1.48-7.31,4.12-9.94s6.21-4.12,9.94-4.12H93.8c-0.75-5.19-2.73-10.13-5.78-14.4
	c-3.05-4.27-7.08-7.75-11.76-10.14c-4.67-2.39-9.85-3.62-15.1-3.6s-10.41,1.31-15.06,3.74c-0.74-3.07-1.96-6-3.62-8.68
	c6.08-3.03,12.8-4.55,19.59-4.43c6.79,0.12,13.45,1.88,19.42,5.13c5.97,3.25,11.06,7.89,14.85,13.52
	c3.79,5.64,6.16,12.11,6.91,18.86h14.31c3.73,0,7.31,1.48,9.94,4.12c2.64,2.64,4.12,6.21,4.12,9.94v46.87
	c0,3.73-1.48,7.31-4.12,9.94c-2.64,2.64-6.21,4.12-9.94,4.12H70.69c-3.73,0-7.31-1.48-9.94-4.12c-2.64-2.64-4.12-6.21-4.12-9.94
	V93.9z M103.25,56.65c-1.07,9.51-5.33,18.38-12.1,25.15C84.38,88.57,75.51,92.83,66,93.9v14.31c0,1.24,0.49,2.44,1.37,3.32
	c0.88,0.88,2.07,1.37,3.31,1.37h46.87c1.24,0,2.44-0.49,3.32-1.37s1.37-2.07,1.37-3.32V61.34c0-1.24-0.49-2.44-1.37-3.31
	c-0.88-0.88-2.07-1.37-3.32-1.37H103.25z M93.8,56.65H70.69c-1.24,0-2.44,0.49-3.31,1.37C66.5,58.9,66,60.1,66,61.34v23.11
	c7.01-1.01,13.51-4.27,18.52-9.28S92.78,63.66,93.8,56.65L93.8,56.65z M35.95,61.91c-0.98-3.62-2.58-7.25-5.32-10.03
	c4.42-4.19,7.24-10.87,7.24-18.67c0-6.53-1.32-11.03-3.71-14.62c-1.06-1.54-2.29-2.97-3.66-4.25c-0.52-0.51-1.06-1.01-1.59-1.5
	c-0.57-0.53-1.1-1.02-1.78-1.71c-1.41-1.41-1.57-2.53-1.57-3.12c0-0.33,0.06-0.65,0.16-0.97c0.43-0.93,0.54-1.97,0.33-2.97
	c-0.22-1-0.76-1.9-1.53-2.56c-0.78-0.66-1.75-1.06-2.77-1.12c-1.02-0.06-2.03,0.21-2.88,0.78L18.85,1.2l-0.03,0.02l-0.08,0.06
	l-0.28,0.19c-1.41,1-2.76,2.08-4.06,3.22C12.06,6.75,9,9.81,6.84,13.47c-1.89,3.03-3.41,6.28-4.52,9.67
	c-1.13,3.37-1.94,7.01-1.94,10.07c0,7.8,2.81,14.47,7.24,18.67c-2.74,2.78-4.33,6.4-5.32,10.03c-1.92,7.05-1.92,15.77-1.92,22.51
	v0.35c0,19.29,3.61,30.75,7.7,37.57c2.05,3.41,4.19,5.62,5.98,7c0.95,0.74,1.99,1.37,3.09,1.88c0.64,0.23,1.3,0.38,1.98,0.43
	c0.79,0,1.98-0.43,1.98-0.43c1.1-0.5,2.14-1.13,3.09-1.88c1.78-1.39,3.94-3.59,5.98-7c4.09-6.81,7.7-18.27,7.7-37.57v-0.34
	C37.88,77.69,37.88,68.98,35.95,61.91z M14.32,58.44c1.06-1.07,2.48-1.79,4.81-1.79c2.34,0,3.75,0.73,4.81,1.78
	c1.18,1.19,2.2,3.12,2.97,5.94c1.56,5.73,1.59,13.25,1.59,20.4c0,18.21-3.42,27.84-6.37,32.75c-1.12,1.87-2.18,3.08-3.01,3.84
	c-1.18-1.13-2.19-2.43-3.01-3.84c-2.94-4.91-6.37-14.54-6.37-32.75c0-7.15,0.04-14.67,1.59-20.4
	C12.11,61.56,13.14,59.62,14.32,58.44L14.32,58.44z M19.13,47.28c-3.61,0-9.38-4.01-9.38-14.06c0-1.62,0.49-4.19,1.46-7.1
	c0.89-2.74,2.11-5.37,3.65-7.81c0.82-1.38,1.88-2.72,3.02-3.95c0.65,1.14,1.5,2.3,2.62,3.42c0.68,0.68,1.58,1.51,2.33,2.22L24,21.09
	c0.98,0.96,1.74,1.79,2.35,2.72c1.12,1.68,2.15,4.22,2.15,9.4C28.5,43.26,22.74,47.28,19.13,47.28z"/>
</svg>
