<?xml version="1.0" encoding="utf-8"?>
<!-- Generator: Adobe Illustrator 26.0.3, SVG Export Plug-In . SVG Version: 6.00 Build 0)  -->
<svg version="1.1" id="Layer_1" xmlns="http://www.w3.org/2000/svg" xmlns:xlink="http://www.w3.org/1999/xlink" x="0px" y="0px"
	 viewBox="0 0 132 132" style="enable-background:new 0 0 132 132;" xml:space="preserve">
<style type="text/css">
	.st0{fill:#008F8A;}
</style>
<path class="st0" d="M42.56,103.5h46.88v9.38H42.56V103.5z"/>
<path class="st0" d="M51.94,122.25h28.12v9.38H51.94V122.25z"/>
<path class="st0" d="M66,0.38c-12.43,0-24.35,4.94-33.15,13.73c-8.79,8.79-13.73,20.71-13.73,33.15c-0.32,6.81,0.99,13.6,3.81,19.81
	c2.82,6.21,7.07,11.66,12.41,15.91c4.69,4.36,7.22,6.84,7.22,11.16h9.38c0-8.62-5.2-13.45-10.27-18.09
	c-4.38-3.35-7.87-7.73-10.17-12.75c-2.3-5.02-3.33-10.52-3-16.03c0-9.95,3.95-19.48,10.98-26.52S56.06,9.75,66,9.75
	s19.48,3.95,26.52,10.98c7.03,7.03,10.98,16.57,10.98,26.52c0.32,5.51-0.72,11.02-3.02,16.04c-2.3,5.02-5.81,9.39-10.19,12.74
	c-5.02,4.69-10.22,9.38-10.22,18.09h9.38c0-4.31,2.48-6.8,7.22-11.2c5.33-4.24,9.59-9.68,12.41-15.88
	c2.82-6.2,4.13-12.98,3.81-19.79c0-6.16-1.21-12.25-3.57-17.94S103.5,18.46,99.15,14.1C94.79,9.75,89.63,6.3,83.94,3.94
	C78.25,1.59,72.16,0.38,66,0.38L66,0.38z"/>
</svg>
