<?xml version="1.0" encoding="utf-8"?>
<!-- Generator: Adobe Illustrator 26.0.3, SVG Export Plug-In . SVG Version: 6.00 Build 0)  -->
<svg version="1.1" id="Layer_1" xmlns="http://www.w3.org/2000/svg" xmlns:xlink="http://www.w3.org/1999/xlink" x="0px" y="0px"
	 viewBox="0 0 132 132" style="enable-background:new 0 0 132 132;" xml:space="preserve">
<style type="text/css">
	.st0{fill:#008F8A;}
</style>
<path class="st0" d="M107.25,53.62c0-1.09-0.43-2.14-1.21-2.92c-0.77-0.77-1.82-1.21-2.92-1.21H61.88c-1.09,0-2.14,0.43-2.92,1.21
	c-0.77,0.77-1.21,1.82-1.21,2.92s0.43,2.14,1.21,2.92c0.77,0.77,1.82,1.21,2.92,1.21h41.25c1.09,0,2.14-0.43,2.92-1.21
	C106.82,55.77,107.25,54.72,107.25,53.62z M107.25,78.38c0-1.09-0.43-2.14-1.21-2.92c-0.77-0.77-1.82-1.21-2.92-1.21H61.88
	c-1.09,0-2.14,0.43-2.92,1.21c-0.77,0.77-1.21,1.82-1.21,2.92s0.43,2.14,1.21,2.92c0.77,0.77,1.82,1.21,2.92,1.21h41.25
	c1.09,0,2.14-0.43,2.92-1.21C106.82,80.52,107.25,79.47,107.25,78.38z M103.12,99c1.09,0,2.14,0.43,2.92,1.21
	c0.77,0.77,1.21,1.82,1.21,2.92s-0.43,2.14-1.21,2.92c-0.77,0.77-1.82,1.21-2.92,1.21H61.88c-1.09,0-2.14-0.43-2.92-1.21
	c-0.77-0.77-1.21-1.82-1.21-2.92s0.43-2.14,1.21-2.92c0.77-0.77,1.82-1.21,2.92-1.21H103.12z"/>
<path class="st0" d="M115.5,0c4.38,0,8.57,1.74,11.67,4.83c3.09,3.09,4.83,7.29,4.83,11.67v99c0,4.38-1.74,8.57-4.83,11.67
	c-3.09,3.09-7.29,4.83-11.67,4.83h-99c-4.38,0-8.57-1.74-11.67-4.83C1.74,124.07,0,119.88,0,115.5v-99c0-4.38,1.74-8.57,4.83-11.67
	S12.12,0,16.5,0H115.5z M16.5,8.25c-2.19,0-4.29,0.87-5.83,2.42c-1.55,1.55-2.42,3.65-2.42,5.83v8.25h115.5V16.5
	c0-2.19-0.87-4.29-2.42-5.83c-1.55-1.55-3.65-2.42-5.83-2.42H16.5z M8.25,33v82.5c0,2.19,0.87,4.29,2.42,5.83
	c1.55,1.55,3.65,2.42,5.83,2.42H33V33H8.25z M41.25,33v90.75h74.25c2.19,0,4.29-0.87,5.83-2.42c1.55-1.55,2.42-3.65,2.42-5.83V33
	H41.25z"/>
</svg>
